%TF.GenerationSoftware,KiCad,Pcbnew,(7.0.0)*%
%TF.CreationDate,2023-03-08T13:52:56-06:00*%
%TF.ProjectId,G0-022M6,47302d30-3232-44d3-962e-6b696361645f,rev?*%
%TF.SameCoordinates,Original*%
%TF.FileFunction,Copper,L2,Bot*%
%TF.FilePolarity,Positive*%
%FSLAX46Y46*%
G04 Gerber Fmt 4.6, Leading zero omitted, Abs format (unit mm)*
G04 Created by KiCad (PCBNEW (7.0.0)) date 2023-03-08 13:52:56*
%MOMM*%
%LPD*%
G01*
G04 APERTURE LIST*
%TA.AperFunction,NonConductor*%
%ADD10C,0.000001*%
%TD*%
%TA.AperFunction,ComponentPad*%
%ADD11C,1.500000*%
%TD*%
%TA.AperFunction,ComponentPad*%
%ADD12C,1.860000*%
%TD*%
%TA.AperFunction,ComponentPad*%
%ADD13R,1.500000X1.050000*%
%TD*%
%TA.AperFunction,ComponentPad*%
%ADD14O,1.500000X1.050000*%
%TD*%
%TA.AperFunction,ComponentPad*%
%ADD15R,1.050000X1.500000*%
%TD*%
%TA.AperFunction,ComponentPad*%
%ADD16O,1.050000X1.500000*%
%TD*%
%TA.AperFunction,SMDPad,CuDef*%
%ADD17O,1.500000X1.700000*%
%TD*%
%TA.AperFunction,SMDPad,CuDef*%
%ADD18C,1.900000*%
%TD*%
%TA.AperFunction,ViaPad*%
%ADD19C,0.500000*%
%TD*%
%TA.AperFunction,ViaPad*%
%ADD20C,0.800000*%
%TD*%
%TA.AperFunction,Conductor*%
%ADD21C,0.250000*%
%TD*%
%TA.AperFunction,Conductor*%
%ADD22C,0.500000*%
%TD*%
G04 APERTURE END LIST*
D10*
X177153350Y-61881350D02*
G75*
G03*
X177153350Y-61881350I0J0D01*
G01*
X126948750Y-61682950D02*
G75*
G03*
X126948750Y-61682950I0J0D01*
G01*
D11*
%TO.P,C6,1*%
%TO.N,/Q1.Out*%
X150530000Y-63510000D03*
%TO.P,C6,2*%
%TO.N,/Q2.In*%
X153530000Y-63510000D03*
%TD*%
D12*
%TO.P,J5,1,+5V*%
%TO.N,/VCC*%
X175258400Y-58071300D03*
%TO.P,J5,2,Clock*%
%TO.N,/Clk*%
X173711900Y-59578300D03*
%TO.P,J5,3,Write*%
%TO.N,/Game.Write*%
X172249862Y-58071300D03*
%TO.P,J5,4,Read*%
%TO.N,/Game.Read*%
X170706224Y-59578300D03*
%TO.P,J5,5,CS*%
%TO.N,/Game.CS*%
X169241329Y-58071300D03*
%TO.P,J5,6,A0*%
%TO.N,/A0*%
X167700558Y-59578300D03*
%TO.P,J5,7,A1*%
%TO.N,/A1*%
X166232796Y-58071300D03*
%TO.P,J5,8,A2*%
%TO.N,/A2*%
X164694892Y-59578300D03*
%TO.P,J5,9,A3*%
%TO.N,/A3*%
X163224263Y-58071300D03*
%TO.P,J5,10,A4*%
%TO.N,/A4*%
X161689226Y-59578300D03*
%TO.P,J5,11,A5*%
%TO.N,/A5*%
X160215730Y-58071300D03*
%TO.P,J5,12,A6*%
%TO.N,/A6*%
X158683560Y-59578300D03*
%TO.P,J5,13,A7*%
%TO.N,/A7*%
X157207197Y-58071300D03*
%TO.P,J5,14,A8*%
%TO.N,/A8*%
X155677894Y-59578300D03*
%TO.P,J5,15,A9*%
%TO.N,/A9*%
X154198664Y-58071300D03*
%TO.P,J5,16,A10*%
%TO.N,/A10*%
X152672228Y-59578300D03*
%TO.P,J5,17,A11*%
%TO.N,/A11*%
X151190131Y-58071300D03*
%TO.P,J5,18,A12*%
%TO.N,/A12*%
X149666562Y-59578300D03*
%TO.P,J5,19,A13*%
%TO.N,/Game.A13*%
X148181598Y-58071300D03*
%TO.P,J5,20,A14*%
%TO.N,/Game.A14*%
X146660896Y-59578300D03*
%TO.P,J5,21,A15*%
%TO.N,/Game.A15*%
X145173065Y-58071300D03*
%TO.P,J5,22,Data_0*%
%TO.N,/D0*%
X143655230Y-59578300D03*
%TO.P,J5,23,Data_1*%
%TO.N,/D1*%
X142164532Y-58071300D03*
%TO.P,J5,24,Data_2*%
%TO.N,/D2*%
X140649564Y-59578300D03*
%TO.P,J5,25,Data_3*%
%TO.N,/D3*%
X139155999Y-58071300D03*
%TO.P,J5,26,Data_4*%
%TO.N,/D4*%
X137643898Y-59578300D03*
%TO.P,J5,27,Data_5*%
%TO.N,/D5*%
X136147466Y-58071300D03*
%TO.P,J5,28,Data_6*%
%TO.N,/D6*%
X134638232Y-59578300D03*
%TO.P,J5,29,Data_7*%
%TO.N,/D7*%
X133138933Y-58071300D03*
%TO.P,J5,30,Reset*%
%TO.N,/Reset*%
X131632566Y-59578300D03*
%TO.P,J5,31,Audio*%
%TO.N,/Audio*%
X130130400Y-58071300D03*
%TO.P,J5,32,GND*%
%TO.N,/GND*%
X128626900Y-59578300D03*
%TD*%
D13*
%TO.P,Q2,1,E*%
%TO.N,/Q2.In*%
X137266999Y-66167999D03*
D14*
%TO.P,Q2,2,B*%
%TO.N,/Q2.Trigger*%
X137266999Y-64897999D03*
%TO.P,Q2,3,C*%
%TO.N,/Q2.Out*%
X137266999Y-63627999D03*
%TD*%
D15*
%TO.P,Q1,1,E*%
%TO.N,/GND*%
X166834999Y-67516999D03*
D16*
%TO.P,Q1,2,B*%
%TO.N,/Q1.Trigger*%
X168104999Y-67516999D03*
%TO.P,Q1,3,C*%
%TO.N,/Q1.Out*%
X169374999Y-67516999D03*
%TD*%
D17*
%TO.P,J11,1,Pin_1*%
%TO.N,/Const.High.23*%
X135003999Y-55794999D03*
%TO.P,J11,2,Pin_2*%
%TO.N,/Button*%
X132463999Y-55794999D03*
%TO.P,J11,3,Pin_3*%
%TO.N,/GND*%
X129923999Y-55794999D03*
%TO.P,J11,4,Pin_4*%
%TO.N,/Q2.Out*%
X127383999Y-55794999D03*
%TD*%
D18*
%TO.P,J7,1,Pin_1*%
%TO.N,/Const.High.23*%
X177153400Y-61881300D03*
%TD*%
%TO.P,J10,1,Pin_1*%
%TO.N,/Q2.In*%
X126948800Y-61682900D03*
%TD*%
%TO.P,J9,1,Pin_1*%
%TO.N,/GND*%
X164334400Y-64937200D03*
%TD*%
%TO.P,J8,1,Pin_1*%
%TO.N,/Button*%
X175288100Y-67001000D03*
%TD*%
D19*
%TO.N,/Audio*%
X128401600Y-78605200D03*
X172917300Y-134216800D03*
%TO.N,/Reset*%
X159210000Y-130834600D03*
X171991400Y-134159700D03*
X132091600Y-68327900D03*
%TO.N,/Game.CS*%
X145941300Y-107734500D03*
%TO.N,/Game.Read*%
X174083600Y-72873900D03*
X146677600Y-107739300D03*
%TO.N,/Game.Write*%
X147230400Y-107191500D03*
%TO.N,/Clk*%
X140604600Y-112133700D03*
%TO.N,/Const.High.21*%
X171845000Y-120109700D03*
X174170000Y-117444000D03*
X158249300Y-127971900D03*
%TO.N,/Transistors*%
X145410200Y-108267200D03*
X135353200Y-107320400D03*
%TO.N,/Const.High.23*%
X161649100Y-105960800D03*
X159341800Y-121673900D03*
%TO.N,/Button*%
X159501400Y-123558500D03*
%TO.N,/TSOP.DIP.OE*%
X150370000Y-108381100D03*
X166600400Y-96033600D03*
%TO.N,/TSOP.DIP.WE*%
X148944200Y-106050400D03*
X163902300Y-91050500D03*
%TO.N,/Unused.A18*%
X140605700Y-94749900D03*
X134360400Y-100700600D03*
%TO.N,/A16*%
X141793000Y-95069200D03*
X163324000Y-89378900D03*
X134482000Y-106483900D03*
%TO.N,/Game.A15*%
X143062000Y-98232000D03*
X138959900Y-109226300D03*
X146394800Y-79472100D03*
X143299100Y-82186000D03*
X167079000Y-83396800D03*
X171620500Y-77677000D03*
%TO.N,/A12*%
X152749000Y-77993800D03*
X144089300Y-89108400D03*
X158288100Y-78010200D03*
X143217500Y-106099200D03*
%TO.N,/A7*%
X143887500Y-117017000D03*
X146222000Y-92111100D03*
X156278200Y-75083000D03*
X157333600Y-77427900D03*
%TO.N,/A6*%
X163694400Y-80029000D03*
X147751000Y-97639900D03*
X142424500Y-107286800D03*
X150406100Y-95266100D03*
%TO.N,/A5*%
X148648000Y-100104200D03*
X142586300Y-108143500D03*
X162991000Y-80210900D03*
X151055400Y-95944800D03*
%TO.N,/A4*%
X142119900Y-108769200D03*
X161241300Y-66235400D03*
X162436900Y-80817800D03*
X156114500Y-92591000D03*
X148495600Y-87954200D03*
%TO.N,/A3*%
X161264100Y-85002800D03*
X152254700Y-85793300D03*
X163079000Y-100436100D03*
X141914000Y-115559300D03*
%TO.N,/A2*%
X162042100Y-87399300D03*
X162431400Y-102866700D03*
X141341800Y-116614100D03*
X151215700Y-85391000D03*
%TO.N,/A1*%
X161300700Y-87572000D03*
X153174200Y-87349500D03*
X164515400Y-87335100D03*
X141325800Y-115108100D03*
X163512000Y-99678900D03*
%TO.N,/A0*%
X165096000Y-87889500D03*
X161233100Y-88839600D03*
X147738200Y-83093800D03*
X141385700Y-109471600D03*
%TO.N,/D0*%
X149598300Y-84308800D03*
X158297400Y-89486900D03*
X162014800Y-103647300D03*
X155781300Y-113151200D03*
%TO.N,/D1*%
X156421000Y-115154000D03*
X163256300Y-126581000D03*
X162038300Y-104347500D03*
X144587900Y-81420500D03*
X157860400Y-90985100D03*
X160059700Y-105041600D03*
%TO.N,/D2*%
X161528700Y-106666800D03*
X163308700Y-105398400D03*
X159819300Y-115263500D03*
X164910500Y-120354700D03*
X144107700Y-82063800D03*
X158292100Y-92009300D03*
%TO.N,/D3*%
X166956800Y-100460300D03*
X160139200Y-114141600D03*
X165488000Y-119336800D03*
X160505600Y-108686400D03*
X154575100Y-95136000D03*
X142462200Y-83023100D03*
X173105000Y-94735400D03*
%TO.N,/D4*%
X160558500Y-112199000D03*
X167677800Y-100441600D03*
X141967000Y-83518300D03*
X152919400Y-97792700D03*
X165137900Y-118172400D03*
%TO.N,/D5*%
X162495800Y-110470800D03*
X166581400Y-117978900D03*
X141471800Y-84013400D03*
X152335000Y-96381400D03*
X169007000Y-104320800D03*
%TO.N,/D6*%
X167169200Y-119779500D03*
X161083700Y-110926200D03*
X168778600Y-103380500D03*
X142523700Y-84588500D03*
X154316300Y-96381100D03*
%TO.N,/D7*%
X169234200Y-123030600D03*
X168703000Y-100308700D03*
X131712600Y-94550300D03*
X175233100Y-94638100D03*
X161069300Y-110200100D03*
%TO.N,/W29.CE*%
X133166600Y-82755000D03*
X129617000Y-82865700D03*
%TO.N,/A10*%
X145334800Y-113138900D03*
X168044500Y-96874400D03*
X134261300Y-96435800D03*
%TO.N,/A11*%
X151446800Y-70897300D03*
X171162400Y-80945100D03*
X136430100Y-86062200D03*
X145998900Y-121507900D03*
%TO.N,/A9*%
X152619900Y-76331000D03*
X137280600Y-87739700D03*
X144476100Y-120888400D03*
%TO.N,/A8*%
X138941800Y-89638400D03*
X142635100Y-106507100D03*
X148341400Y-93838000D03*
%TO.N,/Game.A13*%
X148181600Y-70492900D03*
X168915200Y-80467900D03*
X133210900Y-90144100D03*
X131556800Y-109614400D03*
%TO.N,/Game.A14*%
X146660900Y-75746300D03*
X156987600Y-76663800D03*
X136435100Y-89371100D03*
X135010000Y-110858500D03*
%TO.N,/A17*%
X134350700Y-104319000D03*
X136599900Y-97081500D03*
D20*
%TO.N,/VCC*%
X135620800Y-102544900D03*
X141858900Y-98082400D03*
D19*
%TO.N,/Q2.Out*%
X128977500Y-62858200D03*
%TO.N,/Q2.Trigger*%
X163379000Y-63087300D03*
%TO.N,/Q1.Trigger*%
X130494900Y-81382900D03*
X130354000Y-100971400D03*
D20*
%TO.N,/GND*%
X169579000Y-100273600D03*
X169063700Y-118081700D03*
X141791000Y-63753800D03*
X158176100Y-61462100D03*
X138084300Y-114216500D03*
X148566200Y-115512100D03*
%TD*%
D21*
%TO.N,/Audio*%
X167529500Y-128829000D02*
X172917300Y-134216800D01*
X149761600Y-128829000D02*
X167529500Y-128829000D01*
X128401600Y-107469000D02*
X149761600Y-128829000D01*
X128401600Y-78605200D02*
X128401600Y-107469000D01*
%TO.N,/Reset*%
X151120200Y-130834600D02*
X159210000Y-130834600D01*
X127802800Y-107517200D02*
X151120200Y-130834600D01*
X127802800Y-72616700D02*
X127802800Y-107517200D01*
X132091600Y-68327900D02*
X127802800Y-72616700D01*
X168666300Y-130834600D02*
X171991400Y-134159700D01*
X159210000Y-130834600D02*
X168666300Y-130834600D01*
%TO.N,/Game.CS*%
X145941300Y-107662300D02*
X145941300Y-107734500D01*
X163757200Y-89846400D02*
X145941300Y-107662300D01*
X166429800Y-89846400D02*
X163757200Y-89846400D01*
X174005700Y-82270500D02*
X166429800Y-89846400D01*
X174005700Y-76270700D02*
X174005700Y-82270500D01*
X173048800Y-75313800D02*
X174005700Y-76270700D01*
X173048800Y-64889900D02*
X173048800Y-75313800D01*
X169241300Y-61082400D02*
X173048800Y-64889900D01*
X169241300Y-58071300D02*
X169241300Y-61082400D01*
%TO.N,/Game.Read*%
X146773700Y-107835400D02*
X146677600Y-107739300D01*
X148992200Y-107835400D02*
X146773700Y-107835400D01*
X166081000Y-90746600D02*
X148992200Y-107835400D01*
X166901700Y-90746600D02*
X166081000Y-90746600D01*
X174944800Y-82703500D02*
X166901700Y-90746600D01*
X174944800Y-73735100D02*
X174944800Y-82703500D01*
X174083600Y-72873900D02*
X174944800Y-73735100D01*
%TO.N,/Game.Write*%
X148741100Y-107191500D02*
X147230400Y-107191500D01*
X165636100Y-90296500D02*
X148741100Y-107191500D01*
X166661700Y-90296500D02*
X165636100Y-90296500D01*
X174455900Y-82502300D02*
X166661700Y-90296500D01*
X174455900Y-76084300D02*
X174455900Y-82502300D01*
X173498900Y-75127300D02*
X174455900Y-76084300D01*
X173498900Y-62371000D02*
X173498900Y-75127300D01*
X172249900Y-61122000D02*
X173498900Y-62371000D01*
X172249900Y-58071300D02*
X172249900Y-61122000D01*
%TO.N,/Clk*%
X145526600Y-112133700D02*
X140604600Y-112133700D01*
X166463500Y-91196800D02*
X145526600Y-112133700D01*
X167112700Y-91196800D02*
X166463500Y-91196800D01*
X175458600Y-82850900D02*
X167112700Y-91196800D01*
X175458600Y-71137300D02*
X175458600Y-82850900D01*
X173949100Y-69627800D02*
X175458600Y-71137300D01*
X173949100Y-59815500D02*
X173949100Y-69627800D01*
X173711900Y-59578300D02*
X173949100Y-59815500D01*
%TO.N,/Const.High.21*%
X174170000Y-117784700D02*
X174170000Y-117444000D01*
X171845000Y-120109700D02*
X174170000Y-117784700D01*
X158594700Y-128317300D02*
X158249300Y-127971900D01*
X164827900Y-128317300D02*
X158594700Y-128317300D01*
X171845000Y-121300200D02*
X164827900Y-128317300D01*
X171845000Y-120109700D02*
X171845000Y-121300200D01*
%TO.N,/Transistors*%
X143125100Y-110552300D02*
X145410200Y-108267200D01*
X138585100Y-110552300D02*
X143125100Y-110552300D01*
X135353200Y-107320400D02*
X138585100Y-110552300D01*
%TO.N,/Const.High.23*%
X135004000Y-55795000D02*
X136079100Y-55795000D01*
X177153400Y-57523300D02*
X177153400Y-61881300D01*
X175425100Y-55795000D02*
X177153400Y-57523300D01*
X136079100Y-55795000D02*
X175425100Y-55795000D01*
X159023500Y-121355600D02*
X159341800Y-121673900D01*
X159023500Y-108348100D02*
X159023500Y-121355600D01*
X161410800Y-105960800D02*
X159023500Y-108348100D01*
X161649100Y-105960800D02*
X161410800Y-105960800D01*
X161875000Y-105960800D02*
X161649100Y-105960800D01*
X166264100Y-101571700D02*
X161875000Y-105960800D01*
X166264100Y-100104700D02*
X166264100Y-101571700D01*
X177153400Y-89215400D02*
X166264100Y-100104700D01*
X177153400Y-61881300D02*
X177153400Y-89215400D01*
%TO.N,/Button*%
X175288100Y-61408600D02*
X175288100Y-67001000D01*
X176514000Y-60182700D02*
X175288100Y-61408600D01*
X176514000Y-57520600D02*
X176514000Y-60182700D01*
X175795100Y-56801700D02*
X176514000Y-57520600D01*
X135617900Y-56801700D02*
X175795100Y-56801700D01*
X135449400Y-56970200D02*
X135617900Y-56801700D01*
X134554200Y-56970200D02*
X135449400Y-56970200D01*
X133539100Y-55955100D02*
X134554200Y-56970200D01*
X133539100Y-55795000D02*
X133539100Y-55955100D01*
X132464000Y-55795000D02*
X133539100Y-55795000D01*
X158554000Y-122611100D02*
X159501400Y-123558500D01*
X158554000Y-108081000D02*
X158554000Y-122611100D01*
X161712400Y-104922600D02*
X158554000Y-108081000D01*
X162276600Y-104922600D02*
X161712400Y-104922600D01*
X165814000Y-101385200D02*
X162276600Y-104922600D01*
X165814000Y-99918200D02*
X165814000Y-101385200D01*
X175908800Y-89823400D02*
X165814000Y-99918200D01*
X175908800Y-67621700D02*
X175908800Y-89823400D01*
X175288100Y-67001000D02*
X175908800Y-67621700D01*
%TO.N,/TSOP.DIP.OE*%
X162717500Y-96033600D02*
X150370000Y-108381100D01*
X166600400Y-96033600D02*
X162717500Y-96033600D01*
%TO.N,/TSOP.DIP.WE*%
X148944300Y-106008500D02*
X163902300Y-91050500D01*
X148944300Y-106050400D02*
X148944300Y-106008500D01*
X148944200Y-106050400D02*
X148944300Y-106050400D01*
%TO.N,/Unused.A18*%
X134360500Y-100700600D02*
X134360400Y-100700600D01*
X134360500Y-98505500D02*
X134360500Y-100700600D01*
X138116100Y-94749900D02*
X134360500Y-98505500D01*
X140605700Y-94749900D02*
X138116100Y-94749900D01*
%TO.N,/A16*%
X134920800Y-106483900D02*
X134971100Y-106433600D01*
X134482000Y-106483900D02*
X134920800Y-106483900D01*
X134971100Y-104112500D02*
X134971100Y-106433600D01*
X134891900Y-104033300D02*
X134971100Y-104112500D01*
X134891900Y-101970300D02*
X134891900Y-104033300D01*
X141793000Y-95069200D02*
X134891900Y-101970300D01*
X163324000Y-89509700D02*
X163324000Y-89378900D01*
X142779000Y-110054700D02*
X163324000Y-89509700D01*
X138965500Y-110054700D02*
X142779000Y-110054700D01*
X135344400Y-106433600D02*
X138965500Y-110054700D01*
X134971100Y-106433600D02*
X135344400Y-106433600D01*
%TO.N,/Game.A15*%
X138959900Y-102334100D02*
X138959900Y-109226300D01*
X143062000Y-98232000D02*
X138959900Y-102334100D01*
X150319500Y-83396800D02*
X167079000Y-83396800D01*
X146394800Y-79472100D02*
X150319500Y-83396800D01*
X171746300Y-77802800D02*
X171620500Y-77677000D01*
X171746300Y-81188100D02*
X171746300Y-77802800D01*
X169537600Y-83396800D02*
X171746300Y-81188100D01*
X167079000Y-83396800D02*
X169537600Y-83396800D01*
X143299100Y-81896000D02*
X143299100Y-82186000D01*
X145723000Y-79472100D02*
X143299100Y-81896000D01*
X146394800Y-79472100D02*
X145723000Y-79472100D01*
%TO.N,/A12*%
X152765400Y-78010200D02*
X158288100Y-78010200D01*
X152749000Y-77993800D02*
X152765400Y-78010200D01*
X144639100Y-104677600D02*
X143217500Y-106099200D01*
X144639100Y-98459300D02*
X144639100Y-104677600D01*
X148916700Y-94181700D02*
X144639100Y-98459300D01*
X148916700Y-93599700D02*
X148916700Y-94181700D01*
X144425400Y-89108400D02*
X148916700Y-93599700D01*
X144089300Y-89108400D02*
X144425400Y-89108400D01*
X140851700Y-85870800D02*
X144089300Y-89108400D01*
X140851700Y-83706800D02*
X140851700Y-85870800D01*
X146564700Y-77993800D02*
X140851700Y-83706800D01*
X152749000Y-77993800D02*
X146564700Y-77993800D01*
%TO.N,/A7*%
X157574700Y-76379500D02*
X156278200Y-75083000D01*
X157574700Y-77070400D02*
X157574700Y-76379500D01*
X157275400Y-77369700D02*
X157574700Y-77070400D01*
X157275400Y-77369700D02*
X157333600Y-77427900D01*
X138643700Y-89054700D02*
X140333500Y-89054700D01*
X138366500Y-89331900D02*
X138643700Y-89054700D01*
X138366500Y-91517300D02*
X138366500Y-89331900D01*
X133314300Y-96569500D02*
X138366500Y-91517300D01*
X133314300Y-106766000D02*
X133314300Y-96569500D01*
X140750700Y-114202400D02*
X133314300Y-106766000D01*
X140750700Y-115346300D02*
X140750700Y-114202400D01*
X141087600Y-115683200D02*
X140750700Y-115346300D01*
X141224300Y-115683200D02*
X141087600Y-115683200D01*
X142558100Y-117017000D02*
X141224300Y-115683200D01*
X143887500Y-117017000D02*
X142558100Y-117017000D01*
X143165600Y-89054700D02*
X146222000Y-92111100D01*
X140333500Y-89054700D02*
X143165600Y-89054700D01*
X140333500Y-83588400D02*
X140333500Y-89054700D01*
X146552200Y-77369700D02*
X140333500Y-83588400D01*
X157275400Y-77369700D02*
X146552200Y-77369700D01*
%TO.N,/A6*%
X148032300Y-97639900D02*
X147751000Y-97639900D01*
X150406100Y-95266100D02*
X148032300Y-97639900D01*
X170257700Y-73465700D02*
X163694400Y-80029000D01*
X170257700Y-66904500D02*
X170257700Y-73465700D01*
X165176900Y-61823700D02*
X170257700Y-66904500D01*
X160929000Y-61823700D02*
X165176900Y-61823700D01*
X158683600Y-59578300D02*
X160929000Y-61823700D01*
X142883700Y-107286800D02*
X142424500Y-107286800D01*
X147751000Y-102419500D02*
X142883700Y-107286800D01*
X147751000Y-97639900D02*
X147751000Y-102419500D01*
%TO.N,/A5*%
X163384300Y-80604200D02*
X162991000Y-80210900D01*
X163946200Y-80604200D02*
X163384300Y-80604200D01*
X170741700Y-73808700D02*
X163946200Y-80604200D01*
X170741700Y-66684400D02*
X170741700Y-73808700D01*
X165370500Y-61313200D02*
X170741700Y-66684400D01*
X161641600Y-61313200D02*
X165370500Y-61313200D01*
X160215700Y-59887300D02*
X161641600Y-61313200D01*
X160215700Y-58071300D02*
X160215700Y-59887300D01*
X142663500Y-108143500D02*
X142586300Y-108143500D01*
X148648000Y-102159000D02*
X142663500Y-108143500D01*
X148648000Y-100104200D02*
X148648000Y-102159000D01*
X148648000Y-98352200D02*
X151055400Y-95944800D01*
X148648000Y-100104200D02*
X148648000Y-98352200D01*
%TO.N,/A4*%
X162372400Y-80753300D02*
X162436900Y-80817800D01*
X162372400Y-67366500D02*
X162372400Y-80753300D01*
X161241300Y-66235400D02*
X162372400Y-67366500D01*
X154623500Y-94082000D02*
X148495600Y-87954200D01*
X154623400Y-94082100D02*
X154623500Y-94082000D01*
X154623400Y-94298500D02*
X154623400Y-94082100D01*
X155159800Y-94834900D02*
X154623400Y-94298500D01*
X155159800Y-96392300D02*
X155159800Y-94834900D01*
X142782900Y-108769200D02*
X155159800Y-96392300D01*
X142119900Y-108769200D02*
X142782900Y-108769200D01*
X154623500Y-94082000D02*
X156114500Y-92591000D01*
%TO.N,/A3*%
X168601300Y-85002800D02*
X161264100Y-85002800D01*
X172205200Y-81398900D02*
X168601300Y-85002800D01*
X172205200Y-77339900D02*
X172205200Y-81398900D01*
X171248400Y-76383100D02*
X172205200Y-77339900D01*
X171248400Y-66554400D02*
X171248400Y-76383100D01*
X165557000Y-60863000D02*
X171248400Y-66554400D01*
X164130100Y-60863000D02*
X165557000Y-60863000D01*
X163224300Y-59957200D02*
X164130100Y-60863000D01*
X163224300Y-58071300D02*
X163224300Y-59957200D01*
X146857100Y-115559300D02*
X141914000Y-115559300D01*
X161980300Y-100436100D02*
X146857100Y-115559300D01*
X163079000Y-100436100D02*
X161980300Y-100436100D01*
X160473600Y-85793300D02*
X152254700Y-85793300D01*
X161264100Y-85002800D02*
X160473600Y-85793300D01*
%TO.N,/A2*%
X142327900Y-117600200D02*
X141341800Y-116614100D01*
X145452800Y-117600200D02*
X142327900Y-117600200D01*
X160186200Y-102866800D02*
X145452800Y-117600200D01*
X162431400Y-102866800D02*
X160186200Y-102866800D01*
X162431400Y-102866700D02*
X162431400Y-102866800D01*
X162042100Y-86496600D02*
X162042100Y-87399300D01*
X167763100Y-86496600D02*
X162042100Y-86496600D01*
X172655300Y-81604400D02*
X167763100Y-86496600D01*
X172655300Y-77153300D02*
X172655300Y-81604400D01*
X171698500Y-76196500D02*
X172655300Y-77153300D01*
X171698500Y-66367800D02*
X171698500Y-76196500D01*
X164909000Y-59578300D02*
X171698500Y-66367800D01*
X164694900Y-59578300D02*
X164909000Y-59578300D01*
X151215700Y-85567900D02*
X151215700Y-85391000D01*
X152144400Y-86496600D02*
X151215700Y-85567900D01*
X162042100Y-86496600D02*
X152144400Y-86496600D01*
%TO.N,/A1*%
X164599400Y-87251100D02*
X164515400Y-87335100D01*
X167672100Y-87251100D02*
X164599400Y-87251100D01*
X173105400Y-81817800D02*
X167672100Y-87251100D01*
X173105400Y-76966800D02*
X173105400Y-81817800D01*
X172148600Y-76010000D02*
X173105400Y-76966800D01*
X172148600Y-65834500D02*
X172148600Y-76010000D01*
X166232800Y-59918700D02*
X172148600Y-65834500D01*
X166232800Y-58071300D02*
X166232800Y-59918700D01*
X161724400Y-87995700D02*
X161300700Y-87572000D01*
X162516100Y-87995700D02*
X161724400Y-87995700D01*
X163176700Y-87335100D02*
X162516100Y-87995700D01*
X164515400Y-87335100D02*
X163176700Y-87335100D01*
X161944500Y-99678900D02*
X163512000Y-99678900D01*
X146702100Y-114921300D02*
X161944500Y-99678900D01*
X141512600Y-114921300D02*
X146702100Y-114921300D01*
X141325800Y-115108100D02*
X141512600Y-114921300D01*
X153174200Y-87349600D02*
X153174200Y-87349500D01*
X161078300Y-87349600D02*
X153174200Y-87349600D01*
X161300700Y-87572000D02*
X161078300Y-87349600D01*
%TO.N,/A0*%
X167741100Y-87889500D02*
X165096000Y-87889500D01*
X173555500Y-82075100D02*
X167741100Y-87889500D01*
X173555500Y-76457100D02*
X173555500Y-82075100D01*
X172598700Y-75500300D02*
X173555500Y-76457100D01*
X172598700Y-65076500D02*
X172598700Y-75500300D01*
X167700600Y-60178400D02*
X172598700Y-65076500D01*
X167700600Y-59578300D02*
X167700600Y-60178400D01*
X164901800Y-88083700D02*
X165096000Y-87889500D01*
X164901800Y-88083800D02*
X164901800Y-88083700D01*
X163618500Y-88083800D02*
X164901800Y-88083800D01*
X162862700Y-88839600D02*
X163618500Y-88083800D01*
X161233100Y-88839600D02*
X162862700Y-88839600D01*
X142717200Y-109471600D02*
X141385700Y-109471600D01*
X158889000Y-93299800D02*
X142717200Y-109471600D01*
X158889000Y-90110200D02*
X158889000Y-93299800D01*
X159962500Y-90110200D02*
X161233100Y-88839600D01*
X158889000Y-90110200D02*
X159962500Y-90110200D01*
X147738200Y-83363600D02*
X147738200Y-83093800D01*
X154484800Y-90110200D02*
X147738200Y-83363600D01*
X158889000Y-90110200D02*
X154484800Y-90110200D01*
%TO.N,/D0*%
X155781300Y-108506700D02*
X155781300Y-113151200D01*
X160640700Y-103647300D02*
X155781300Y-108506700D01*
X162014800Y-103647300D02*
X160640700Y-103647300D01*
X149598300Y-84587100D02*
X149598300Y-84308800D01*
X154498100Y-89486900D02*
X149598300Y-84587100D01*
X158297400Y-89486900D02*
X154498100Y-89486900D01*
%TO.N,/D1*%
X156421000Y-121357300D02*
X156421000Y-115154000D01*
X161644700Y-126581000D02*
X156421000Y-121357300D01*
X163256300Y-126581000D02*
X161644700Y-126581000D01*
X156421000Y-108680300D02*
X160059700Y-105041600D01*
X156421000Y-115154000D02*
X156421000Y-108680300D01*
X160753800Y-104347500D02*
X162038300Y-104347500D01*
X160059700Y-105041600D02*
X160753800Y-104347500D01*
X154152500Y-90985100D02*
X144587900Y-81420500D01*
X157860400Y-90985100D02*
X154152500Y-90985100D01*
%TO.N,/D2*%
X159515500Y-114959700D02*
X159819300Y-115263500D01*
X159515500Y-108701200D02*
X159515500Y-114959700D01*
X161539300Y-106677400D02*
X159515500Y-108701200D01*
X162029700Y-106677400D02*
X161539300Y-106677400D01*
X163308700Y-105398400D02*
X162029700Y-106677400D01*
X161539300Y-106677400D02*
X161528700Y-106666800D01*
X159819300Y-115263500D02*
X164910500Y-120354700D01*
X154053200Y-92009300D02*
X158292100Y-92009300D01*
X144107700Y-82063800D02*
X154053200Y-92009300D01*
%TO.N,/D3*%
X165334400Y-119336800D02*
X165488000Y-119336800D01*
X160139200Y-114141600D02*
X165334400Y-119336800D01*
X159965700Y-113968100D02*
X160139200Y-114141600D01*
X159965700Y-109226300D02*
X159965700Y-113968100D01*
X160505600Y-108686400D02*
X159965700Y-109226300D01*
X142462200Y-83023100D02*
X154575100Y-95136000D01*
X160847600Y-108686400D02*
X160505600Y-108686400D01*
X166956800Y-102577200D02*
X160847600Y-108686400D01*
X166956800Y-100460300D02*
X166956800Y-102577200D01*
X166956800Y-100286800D02*
X166956800Y-100460300D01*
X172508200Y-94735400D02*
X166956800Y-100286800D01*
X173105000Y-94735400D02*
X172508200Y-94735400D01*
%TO.N,/D4*%
X165137900Y-116778400D02*
X165137900Y-118172400D01*
X160558500Y-112199000D02*
X165137900Y-116778400D01*
X152919400Y-95797800D02*
X152919400Y-97792700D01*
X141940100Y-84818500D02*
X152919400Y-95797800D01*
X141940100Y-84358500D02*
X141940100Y-84818500D01*
X142046900Y-84251700D02*
X141940100Y-84358500D01*
X142046900Y-83598200D02*
X142046900Y-84251700D01*
X141967000Y-83518300D02*
X142046900Y-83598200D01*
X160492500Y-112133000D02*
X160558500Y-112199000D01*
X160492500Y-109745300D02*
X160492500Y-112133000D01*
X167677800Y-102560000D02*
X160492500Y-109745300D01*
X167677800Y-100441600D02*
X167677800Y-102560000D01*
%TO.N,/D5*%
X166581400Y-114556400D02*
X162495800Y-110470800D01*
X166581400Y-117978900D02*
X166581400Y-114556400D01*
X162857000Y-110470800D02*
X169007000Y-104320800D01*
X162495800Y-110470800D02*
X162857000Y-110470800D01*
X141471800Y-85518200D02*
X141471800Y-84013400D01*
X152335000Y-96381400D02*
X141471800Y-85518200D01*
%TO.N,/D6*%
X165722600Y-115464700D02*
X161265800Y-111007900D01*
X165722600Y-118332900D02*
X165722600Y-115464700D01*
X167169200Y-119779500D02*
X165722600Y-118332900D01*
X161165400Y-111007900D02*
X161083700Y-110926200D01*
X161265800Y-111007900D02*
X161165400Y-111007900D01*
X142523700Y-84588500D02*
X154316300Y-96381100D01*
X168657100Y-103380500D02*
X168778600Y-103380500D01*
X161888200Y-110149400D02*
X168657100Y-103380500D01*
X161888200Y-110385500D02*
X161888200Y-110149400D01*
X161855500Y-110418200D02*
X161888200Y-110385500D01*
X161855500Y-110438400D02*
X161855500Y-110418200D01*
X161518700Y-110775200D02*
X161855500Y-110438400D01*
X161498500Y-110775200D02*
X161518700Y-110775200D01*
X161265800Y-111007900D02*
X161498500Y-110775200D01*
%TO.N,/D7*%
X164397700Y-127867100D02*
X169234200Y-123030600D01*
X159832700Y-127867100D02*
X164397700Y-127867100D01*
X157878600Y-125913000D02*
X159832700Y-127867100D01*
X147482200Y-125913000D02*
X157878600Y-125913000D01*
X132950000Y-111380800D02*
X147482200Y-125913000D01*
X132950000Y-110090900D02*
X132950000Y-111380800D01*
X131466900Y-108607800D02*
X132950000Y-110090900D01*
X131466900Y-94796000D02*
X131466900Y-108607800D01*
X131712600Y-94550300D02*
X131466900Y-94796000D01*
X170325400Y-121939400D02*
X170325400Y-99545800D01*
X169234200Y-123030600D02*
X170325400Y-121939400D01*
X168703000Y-100088400D02*
X168703000Y-100308700D01*
X169245600Y-99545800D02*
X168703000Y-100088400D01*
X170325400Y-99545800D02*
X169245600Y-99545800D01*
X168703000Y-102566400D02*
X161069300Y-110200100D01*
X168703000Y-100308700D02*
X168703000Y-102566400D01*
X170325400Y-99545800D02*
X175233100Y-94638100D01*
%TO.N,/W29.CE*%
X133055900Y-82865700D02*
X129617000Y-82865700D01*
X133166600Y-82755000D02*
X133055900Y-82865700D01*
%TO.N,/A10*%
X147847800Y-113138900D02*
X145334800Y-113138900D01*
X164112300Y-96874400D02*
X147847800Y-113138900D01*
X168044500Y-96874400D02*
X164112300Y-96874400D01*
X140323700Y-113138900D02*
X145334800Y-113138900D01*
X133764500Y-106579700D02*
X140323700Y-113138900D01*
X133764500Y-96932600D02*
X133764500Y-106579700D01*
X134261300Y-96435800D02*
X133764500Y-96932600D01*
%TO.N,/A11*%
X136430100Y-85068700D02*
X136430100Y-86062200D01*
X150601500Y-70897300D02*
X136430100Y-85068700D01*
X151446800Y-70897300D02*
X150601500Y-70897300D01*
X145998900Y-121507800D02*
X145998900Y-121507900D01*
X143713600Y-121507800D02*
X145998900Y-121507800D01*
X134037100Y-111831300D02*
X143713600Y-121507800D01*
X134037100Y-110287000D02*
X134037100Y-111831300D01*
X131953100Y-108203000D02*
X134037100Y-110287000D01*
X131953100Y-95607700D02*
X131953100Y-108203000D01*
X134166200Y-93394600D02*
X131953100Y-95607700D01*
X134166200Y-88326100D02*
X134166200Y-93394600D01*
X136430100Y-86062200D02*
X134166200Y-88326100D01*
X170264500Y-81843000D02*
X171162400Y-80945100D01*
X162012200Y-81843000D02*
X170264500Y-81843000D01*
X161186200Y-81017000D02*
X162012200Y-81843000D01*
X161186200Y-79177600D02*
X161186200Y-81017000D01*
X152905900Y-70897300D02*
X161186200Y-79177600D01*
X151446800Y-70897300D02*
X152905900Y-70897300D01*
%TO.N,/A9*%
X143730800Y-120888400D02*
X144476100Y-120888400D01*
X137359200Y-114516800D02*
X143730800Y-120888400D01*
X137359200Y-111855000D02*
X137359200Y-114516800D01*
X132861800Y-107357600D02*
X137359200Y-111855000D01*
X132861800Y-96378700D02*
X132861800Y-107357600D01*
X137280600Y-91959900D02*
X132861800Y-96378700D01*
X137280600Y-87739700D02*
X137280600Y-91959900D01*
X152619900Y-76331100D02*
X152619900Y-76331000D01*
X146943700Y-76331100D02*
X152619900Y-76331100D01*
X138148800Y-85126000D02*
X146943700Y-76331100D01*
X138148800Y-86871500D02*
X138148800Y-85126000D01*
X137280600Y-87739700D02*
X138148800Y-86871500D01*
%TO.N,/A8*%
X143729700Y-94426200D02*
X138941800Y-89638400D01*
X143684900Y-94471000D02*
X143729700Y-94426200D01*
X143684900Y-104818500D02*
X143684900Y-94471000D01*
X142635100Y-105868300D02*
X143684900Y-104818500D01*
X142635100Y-106507100D02*
X142635100Y-105868300D01*
X144317900Y-93838000D02*
X148341400Y-93838000D01*
X143729700Y-94426200D02*
X144317900Y-93838000D01*
%TO.N,/Game.A13*%
X133210900Y-85463600D02*
X133210900Y-90144100D01*
X148181600Y-70492900D02*
X133210900Y-85463600D01*
X130973000Y-92382000D02*
X133210900Y-90144100D01*
X130973000Y-109030600D02*
X130973000Y-92382000D01*
X131556800Y-109614400D02*
X130973000Y-109030600D01*
X167990200Y-81392900D02*
X168915200Y-80467900D01*
X162198700Y-81392900D02*
X167990200Y-81392900D01*
X161861800Y-81056000D02*
X162198700Y-81392900D01*
X161861800Y-79216600D02*
X161861800Y-81056000D01*
X152944300Y-70299100D02*
X161861800Y-79216600D01*
X148375400Y-70299100D02*
X152944300Y-70299100D01*
X148181600Y-70492900D02*
X148375400Y-70299100D01*
%TO.N,/Game.A14*%
X156070100Y-75746300D02*
X146660900Y-75746300D01*
X156987600Y-76663800D02*
X156070100Y-75746300D01*
X136435100Y-86907700D02*
X136435100Y-89371100D01*
X137698600Y-85644200D02*
X136435100Y-86907700D01*
X137698600Y-84708600D02*
X137698600Y-85644200D01*
X146660900Y-75746300D02*
X137698600Y-84708600D01*
X135010000Y-110368900D02*
X135010000Y-110858500D01*
X132403200Y-107762100D02*
X135010000Y-110368900D01*
X132403200Y-96200600D02*
X132403200Y-107762100D01*
X136435100Y-92168700D02*
X132403200Y-96200600D01*
X136435100Y-89371100D02*
X136435100Y-92168700D01*
%TO.N,/A17*%
X134350700Y-101874800D02*
X134350700Y-104319000D01*
X136599900Y-99625600D02*
X134350700Y-101874800D01*
X136599900Y-97081500D02*
X136599900Y-99625600D01*
D22*
%TO.N,/VCC*%
X140083300Y-98082400D02*
X135620800Y-102544900D01*
X141858900Y-98082400D02*
X140083300Y-98082400D01*
D21*
%TO.N,/Q2.Out*%
X127384000Y-55795000D02*
X127384000Y-56970100D01*
X127325900Y-60079500D02*
X129541100Y-62294600D01*
X127325900Y-57028200D02*
X127325900Y-60079500D01*
X127384000Y-56970100D02*
X127325900Y-57028200D01*
X130874400Y-63628000D02*
X137267000Y-63628000D01*
X129541100Y-62294600D02*
X130874400Y-63628000D01*
X129541100Y-62294600D02*
X128977500Y-62858200D01*
%TO.N,/Q2.Trigger*%
X137267000Y-64898000D02*
X138342100Y-64898000D01*
X157662000Y-63087300D02*
X163379000Y-63087300D01*
X157007600Y-62432900D02*
X157662000Y-63087300D01*
X153039100Y-62432900D02*
X157007600Y-62432900D01*
X151818100Y-63653900D02*
X153039100Y-62432900D01*
X151818100Y-63770400D02*
X151818100Y-63653900D01*
X150969300Y-64619200D02*
X151818100Y-63770400D01*
X138620900Y-64619200D02*
X150969300Y-64619200D01*
X138342100Y-64898000D02*
X138620900Y-64619200D01*
%TO.N,/Q2.In*%
X137267000Y-66168000D02*
X138342100Y-66168000D01*
X151794000Y-65246000D02*
X153530000Y-63510000D01*
X139264100Y-65246000D02*
X151794000Y-65246000D01*
X138342100Y-66168000D02*
X139264100Y-65246000D01*
X135772100Y-65748200D02*
X136191900Y-66168000D01*
X131014100Y-65748200D02*
X135772100Y-65748200D01*
X126948800Y-61682900D02*
X131014100Y-65748200D01*
X137267000Y-66168000D02*
X136191900Y-66168000D01*
%TO.N,/Q1.Out*%
X169375000Y-67238900D02*
X169375000Y-67517000D01*
X164569200Y-62433100D02*
X169375000Y-67238900D01*
X158108300Y-62433100D02*
X164569200Y-62433100D01*
X157651800Y-61976600D02*
X158108300Y-62433100D01*
X152063400Y-61976600D02*
X157651800Y-61976600D01*
X150530000Y-63510000D02*
X152063400Y-61976600D01*
%TO.N,/Q1.Trigger*%
X168105000Y-67517000D02*
X168105000Y-68592100D01*
X145731700Y-66146100D02*
X130494900Y-81382900D01*
X160457500Y-66146100D02*
X145731700Y-66146100D01*
X160950100Y-65653500D02*
X160457500Y-66146100D01*
X161935800Y-65653500D02*
X160950100Y-65653500D01*
X164874400Y-68592100D02*
X161935800Y-65653500D01*
X168105000Y-68592100D02*
X164874400Y-68592100D01*
X128990100Y-99607500D02*
X130354000Y-100971400D01*
X128990100Y-82679300D02*
X128990100Y-99607500D01*
X130286500Y-81382900D02*
X128990100Y-82679300D01*
X130494900Y-81382900D02*
X130286500Y-81382900D01*
D22*
%TO.N,/GND*%
X166835000Y-67517000D02*
X166835000Y-66316900D01*
X165714100Y-66316900D02*
X166835000Y-66316900D01*
X164334400Y-64937200D02*
X165714100Y-66316900D01*
X129924000Y-55795000D02*
X128723900Y-55795000D01*
X128626900Y-55892000D02*
X128723900Y-55795000D01*
X128626900Y-59578300D02*
X128626900Y-55892000D01*
X140145100Y-62107900D02*
X141791000Y-63753800D01*
X131156500Y-62107900D02*
X140145100Y-62107900D01*
X128626900Y-59578300D02*
X131156500Y-62107900D01*
X144145700Y-61399100D02*
X141791000Y-63753800D01*
X158113100Y-61399100D02*
X144145700Y-61399100D01*
X158176100Y-61462100D02*
X158113100Y-61399100D01*
X169707100Y-117438300D02*
X169063700Y-118081700D01*
X169707100Y-100401700D02*
X169707100Y-117438300D01*
X169579000Y-100273600D02*
X169707100Y-100401700D01*
X160346000Y-127291900D02*
X148566200Y-115512100D01*
X163558100Y-127291900D02*
X160346000Y-127291900D01*
X169063700Y-121786300D02*
X163558100Y-127291900D01*
X169063700Y-118081700D02*
X169063700Y-121786300D01*
X138084300Y-114346800D02*
X138084300Y-114216500D01*
X141942400Y-118204900D02*
X138084300Y-114346800D01*
X145873400Y-118204900D02*
X141942400Y-118204900D01*
X148566200Y-115512100D02*
X145873400Y-118204900D01*
%TD*%
M02*
