M48
; DRILL file {KiCad (7.0.0)} date Wed Mar  8 13:52:58 2023
; FORMAT={-:-/ absolute / metric / decimal}
; #@! TF.CreationDate,2023-03-08T13:52:58-06:00
; #@! TF.GenerationSoftware,Kicad,Pcbnew,(7.0.0)
; #@! TF.FileFunction,Plated,1,2,PTH
FMAT,2
METRIC
; #@! TA.AperFunction,Plated,PTH,ViaDrill
T1C0.300
; #@! TA.AperFunction,Plated,PTH,ViaDrill
T2C0.400
; #@! TA.AperFunction,Plated,PTH,ComponentDrill
T3C0.750
; #@! TA.AperFunction,Plated,PTH,ComponentDrill
T4C1.000
; #@! TA.AperFunction,Plated,PTH,ComponentDrill
T5C1.200
%
G90
G05
T1
X128.402Y-78.605
X128.977Y-62.858
X129.617Y-82.866
X130.354Y-100.971
X130.495Y-81.383
X131.557Y-109.614
X131.713Y-94.55
X132.092Y-68.328
X133.167Y-82.755
X133.211Y-90.144
X134.261Y-96.436
X134.351Y-104.319
X134.36Y-100.701
X134.482Y-106.484
X135.01Y-110.858
X135.353Y-107.32
X136.43Y-86.062
X136.435Y-89.371
X136.6Y-97.081
X137.281Y-87.74
X138.942Y-89.638
X138.96Y-109.226
X140.605Y-112.134
X140.606Y-94.75
X141.326Y-115.108
X141.342Y-116.614
X141.386Y-109.472
X141.472Y-84.013
X141.793Y-95.069
X141.914Y-115.559
X141.967Y-83.518
X142.12Y-108.769
X142.424Y-107.287
X142.462Y-83.023
X142.524Y-84.588
X142.586Y-108.143
X142.635Y-106.507
X143.062Y-98.232
X143.218Y-106.099
X143.299Y-82.186
X143.887Y-117.017
X144.089Y-89.108
X144.108Y-82.064
X144.476Y-120.888
X144.588Y-81.42
X145.335Y-113.139
X145.41Y-108.267
X145.941Y-107.734
X145.999Y-121.508
X146.222Y-92.111
X146.395Y-79.472
X146.661Y-75.746
X146.678Y-107.739
X147.23Y-107.191
X147.738Y-83.094
X147.751Y-97.64
X148.182Y-70.493
X148.341Y-93.838
X148.496Y-87.954
X148.648Y-100.104
X148.944Y-106.05
X149.598Y-84.309
X150.37Y-108.381
X150.406Y-95.266
X151.055Y-95.945
X151.216Y-85.391
X151.447Y-70.897
X152.255Y-85.793
X152.335Y-96.381
X152.62Y-76.331
X152.749Y-77.994
X152.919Y-97.793
X153.174Y-87.349
X154.316Y-96.381
X154.575Y-95.136
X155.781Y-113.151
X156.114Y-92.591
X156.278Y-75.083
X156.421Y-115.154
X156.988Y-76.664
X157.334Y-77.428
X157.86Y-90.985
X158.249Y-127.972
X158.288Y-78.01
X158.292Y-92.009
X158.297Y-89.487
X159.21Y-130.835
X159.342Y-121.674
X159.501Y-123.558
X159.819Y-115.263
X160.06Y-105.042
X160.139Y-114.142
X160.506Y-108.686
X160.558Y-112.199
X161.069Y-110.2
X161.084Y-110.926
X161.233Y-88.84
X161.241Y-66.235
X161.264Y-85.003
X161.301Y-87.572
X161.529Y-106.667
X161.649Y-105.961
X162.015Y-103.647
X162.038Y-104.347
X162.042Y-87.399
X162.431Y-102.867
X162.437Y-80.818
X162.496Y-110.471
X162.991Y-80.211
X163.079Y-100.436
X163.256Y-126.581
X163.309Y-105.398
X163.324Y-89.379
X163.379Y-63.087
X163.512Y-99.679
X163.694Y-80.029
X163.902Y-91.05
X164.515Y-87.335
X164.91Y-120.355
X165.096Y-87.889
X165.138Y-118.172
X165.488Y-119.337
X166.581Y-117.979
X166.6Y-96.034
X166.957Y-100.46
X167.079Y-83.397
X167.169Y-119.779
X167.678Y-100.442
X168.044Y-96.874
X168.703Y-100.309
X168.779Y-103.38
X168.915Y-80.468
X169.007Y-104.321
X169.234Y-123.031
X171.162Y-80.945
X171.62Y-77.677
X171.845Y-120.11
X171.991Y-134.16
X172.917Y-134.217
X173.105Y-94.735
X174.084Y-72.874
X174.17Y-117.444
X175.233Y-94.638
T2
X135.621Y-102.545
X138.084Y-114.216
X141.791Y-63.754
X141.859Y-98.082
X148.566Y-115.512
X158.176Y-61.462
X169.064Y-118.082
X169.579Y-100.274
T3
X137.267Y-63.628
X137.267Y-64.898
X137.267Y-66.168
X166.835Y-67.517
X168.105Y-67.517
X169.375Y-67.517
T4
X150.53Y-63.51
X153.53Y-63.51
T5
X128.627Y-59.578
X130.13Y-58.071
X131.633Y-59.578
X133.139Y-58.071
X134.638Y-59.578
X136.147Y-58.071
X137.644Y-59.578
X139.156Y-58.071
X140.65Y-59.578
X142.165Y-58.071
X143.655Y-59.578
X145.173Y-58.071
X146.661Y-59.578
X148.182Y-58.071
X149.667Y-59.578
X151.19Y-58.071
X152.672Y-59.578
X154.199Y-58.071
X155.678Y-59.578
X157.207Y-58.071
X158.684Y-59.578
X160.216Y-58.071
X161.689Y-59.578
X163.224Y-58.071
X164.695Y-59.578
X166.233Y-58.071
X167.701Y-59.578
X169.241Y-58.071
X170.706Y-59.578
X172.25Y-58.071
X173.712Y-59.578
X175.258Y-58.071
T0
M30
