%TF.GenerationSoftware,KiCad,Pcbnew,(7.0.0)*%
%TF.CreationDate,2023-03-08T13:52:56-06:00*%
%TF.ProjectId,G0-022M6,47302d30-3232-44d3-962e-6b696361645f,rev?*%
%TF.SameCoordinates,Original*%
%TF.FileFunction,Soldermask,Bot*%
%TF.FilePolarity,Negative*%
%FSLAX46Y46*%
G04 Gerber Fmt 4.6, Leading zero omitted, Abs format (unit mm)*
G04 Created by KiCad (PCBNEW (7.0.0)) date 2023-03-08 13:52:56*
%MOMM*%
%LPD*%
G01*
G04 APERTURE LIST*
%ADD10C,1.500000*%
%ADD11C,1.860000*%
%ADD12R,1.500000X1.050000*%
%ADD13O,1.500000X1.050000*%
%ADD14R,1.050000X1.500000*%
%ADD15O,1.050000X1.500000*%
%ADD16O,1.500000X1.700000*%
%ADD17C,1.900000*%
G04 APERTURE END LIST*
D10*
%TO.C,C6*%
X150530000Y-63510000D03*
X153530000Y-63510000D03*
%TD*%
D11*
%TO.C,J5*%
X175258400Y-58071300D03*
X173711900Y-59578300D03*
X172249862Y-58071300D03*
X170706224Y-59578300D03*
X169241329Y-58071300D03*
X167700558Y-59578300D03*
X166232796Y-58071300D03*
X164694892Y-59578300D03*
X163224263Y-58071300D03*
X161689226Y-59578300D03*
X160215730Y-58071300D03*
X158683560Y-59578300D03*
X157207197Y-58071300D03*
X155677894Y-59578300D03*
X154198664Y-58071300D03*
X152672228Y-59578300D03*
X151190131Y-58071300D03*
X149666562Y-59578300D03*
X148181598Y-58071300D03*
X146660896Y-59578300D03*
X145173065Y-58071300D03*
X143655230Y-59578300D03*
X142164532Y-58071300D03*
X140649564Y-59578300D03*
X139155999Y-58071300D03*
X137643898Y-59578300D03*
X136147466Y-58071300D03*
X134638232Y-59578300D03*
X133138933Y-58071300D03*
X131632566Y-59578300D03*
X130130400Y-58071300D03*
X128626900Y-59578300D03*
%TD*%
D12*
%TO.C,Q2*%
X137266999Y-66167999D03*
D13*
X137266999Y-64897999D03*
X137266999Y-63627999D03*
%TD*%
D14*
%TO.C,Q1*%
X166834999Y-67516999D03*
D15*
X168104999Y-67516999D03*
X169374999Y-67516999D03*
%TD*%
D16*
%TO.C,J11*%
X135003999Y-55794999D03*
X132463999Y-55794999D03*
X129923999Y-55794999D03*
X127383999Y-55794999D03*
%TD*%
D17*
%TO.C,J7*%
X177153400Y-61881300D03*
%TD*%
%TO.C,J10*%
X126948800Y-61682900D03*
%TD*%
%TO.C,J9*%
X164334400Y-64937200D03*
%TD*%
%TO.C,J8*%
X175288100Y-67001000D03*
%TD*%
M02*
