%TF.GenerationSoftware,KiCad,Pcbnew,(7.0.0)*%
%TF.CreationDate,2023-03-08T18:54:55-06:00*%
%TF.ProjectId,Button Board,42757474-6f6e-4204-926f-6172642e6b69,rev?*%
%TF.SameCoordinates,Original*%
%TF.FileFunction,Copper,L2,Bot*%
%TF.FilePolarity,Positive*%
%FSLAX46Y46*%
G04 Gerber Fmt 4.6, Leading zero omitted, Abs format (unit mm)*
G04 Created by KiCad (PCBNEW (7.0.0)) date 2023-03-08 18:54:55*
%MOMM*%
%LPD*%
G01*
G04 APERTURE LIST*
%TA.AperFunction,ComponentPad*%
%ADD10C,2.000000*%
%TD*%
%TA.AperFunction,ComponentPad*%
%ADD11O,1.600000X2.000000*%
%TD*%
%TA.AperFunction,ComponentPad*%
%ADD12O,1.750000X2.000000*%
%TD*%
%TA.AperFunction,ComponentPad*%
%ADD13R,6.000000X3.500000*%
%TD*%
%TA.AperFunction,Conductor*%
%ADD14C,0.500000*%
%TD*%
G04 APERTURE END LIST*
D10*
%TO.P,J3,1,Pin_1*%
%TO.N,Net-(J3-Pin_1)*%
X153919000Y-108389000D03*
%TD*%
%TO.P,J2,1,Pin_1*%
%TO.N,Net-(J2-Pin_1)*%
X150743000Y-95767000D03*
%TD*%
%TO.P,SW2,1,1*%
%TO.N,Net-(J3-Pin_1)*%
X151831000Y-99671000D03*
%TO.P,SW2,2,2*%
%TO.N,Net-(SW2-Pad2)*%
X156331000Y-99671000D03*
%TO.P,SW2,3,3*%
%TO.N,Net-(J3-Pin_1)*%
X151831000Y-105671000D03*
%TO.P,SW2,4,4*%
%TO.N,Net-(SW2-Pad2)*%
X156331000Y-105671000D03*
%TD*%
%TO.P,J1,1,Pin_1*%
%TO.N,Net-(J1-Pin_1)*%
X142365000Y-95652000D03*
%TD*%
D11*
%TO.P,SW1,1,A*%
%TO.N,Net-(J1-Pin_1)*%
X143916999Y-102651999D03*
%TO.P,SW1,2,B*%
%TO.N,Net-(J3-Pin_1)*%
X145916999Y-102651999D03*
%TO.P,SW1,3,C*%
%TO.N,Net-(J2-Pin_1)*%
X147916999Y-102651999D03*
D12*
%TO.P,SW1,4,GND*%
%TO.N,unconnected-(SW1A-GND-Pad4)*%
X141666999Y-102651999D03*
%TO.P,SW1,5,GND*%
%TO.N,unconnected-(SW1A-GND-Pad5)*%
X150166999Y-102651999D03*
%TD*%
D13*
%TO.P,J4,1,Pin_1*%
%TO.N,Net-(J3-Pin_1)*%
X148810999Y-107154999D03*
%TD*%
D14*
%TO.N,Net-(J3-Pin_1)*%
X145917000Y-103761000D02*
X148811000Y-106655000D01*
X145917000Y-102652000D02*
X145917000Y-103761000D01*
X153919000Y-108389000D02*
X152311000Y-106781000D01*
X151831000Y-106175000D02*
X151831000Y-105671000D01*
X148811000Y-106655000D02*
X152311000Y-106655000D01*
X151831000Y-99671000D02*
X151831000Y-105671000D01*
X152311000Y-106655000D02*
X151831000Y-106175000D01*
X152311000Y-106781000D02*
X152311000Y-106655000D01*
%TO.N,Net-(J1-Pin_1)*%
X143917000Y-102652000D02*
X142365000Y-101100000D01*
X142365000Y-101100000D02*
X142365000Y-95652000D01*
%TO.N,Net-(J2-Pin_1)*%
X150743000Y-98326000D02*
X150743000Y-95767000D01*
X147917000Y-102652000D02*
X147917000Y-101152000D01*
X147917000Y-101152000D02*
X150743000Y-98326000D01*
%TO.N,Net-(SW2-Pad2)*%
X156331000Y-105671000D02*
X156331000Y-99671000D01*
%TD*%
M02*
